<svg xmlns="http://www.w3.org/2000/svg" id="Layer_1" viewBox="0 0 619.8 193">
  <style>
    .st0{fill:#1e1868}.st1{fill:#1a8bfc}
  </style>
  <circle cx="220.8" cy="14.7" r="14.7" class="st0"/>
  <path d="M236 33.5h-30.2c-5.2 0-9.5 4.2-9.5 9.5v34.2c0 5.2 4.2 9.5 9.5 9.5h2.3v49.8c0 4 3.3 7.3 7.3 7.3h11.1c4 0 7.3-3.3 7.3-7.3V86.6h2.3c5.2 0 9.5-4.2 9.5-9.5V43c-.2-5.3-4.4-9.5-9.6-9.5z" class="st0"/>
  <circle cx="420.4" cy="11.1" r="11.1" class="st0"/>
  <path d="M431.8 25.2H409c-3.9 0-7.1 3.2-7.1 7.1V58c0 3.9 3.2 7.1 7.1 7.1h1.7v37.5c0 3 2.5 5.5 5.5 5.5h8.3c3 0 5.5-2.5 5.5-5.5V65.1h1.7c3.9 0 7.1-3.2 7.1-7.1V32.3c.1-3.9-3.1-7.1-7-7.1z" class="st0"/>
  <circle cx="323.7" cy="19.8" r="19.8" class="st0"/>
  <path d="M344.1 45h-40.6c-7 0-12.7 5.7-12.7 12.7v45.9c0 7 5.7 12.7 12.7 12.7h3.1v66.9c0 5.4 4.4 9.8 9.8 9.8h14.9c5.4 0 9.8-4.4 9.8-9.8v-66.9h3.1c7 0 12.7-5.7 12.7-12.7V57.7c-.1-7-5.8-12.7-12.8-12.7z" class="st0"/>
  <circle cx="118.3" cy="19.8" r="19.8" class="st0"/>
  <path d="M138.6 45H97.9c-7 0-12.7 5.7-12.7 12.7v45.9c0 7 5.7 12.7 12.7 12.7h3.1v66.9c0 5.4 4.4 9.8 9.8 9.8h14.9c5.4 0 9.8-4.4 9.8-9.8v-66.9h3.1c7 0 12.7-5.7 12.7-12.7V57.7c0-7-5.7-12.7-12.7-12.7z" class="st0"/>
  <path d="M203.4 153.8h34.9v34.9h-34.9z" class="st1"/>
  <path d="M234.1 158v26.5h-26.5V158h26.5m7.1-8.4h-40.6c-.7 0-1.3.6-1.3 1.3v40.6c0 .7.6 1.3 1.3 1.3h40.6c.7 0 1.3-.6 1.3-1.3v-40.6c0-.7-.6-1.3-1.3-1.3z" class="st0"/>
  <circle cx="509.6" cy="14.7" r="14.7" class="st0"/>
  <path d="M524.8 33.5h-30.2c-5.2 0-9.5 4.2-9.5 9.5v34.2c0 5.2 4.2 9.5 9.5 9.5h2.3v49.8c0 4 3.3 7.3 7.3 7.3h11.1c4 0 7.3-3.3 7.3-7.3V86.6h2.3c5.2 0 9.5-4.2 9.5-9.5V43c-.2-5.3-4.4-9.5-9.6-9.5z" class="st0"/>
  <path d="M492.2 153.8h34.9v34.9h-34.9z" class="st1"/>
  <path d="M522.9 158v26.5h-26.5V158h26.5m7-8.4h-40.6c-.7 0-1.3.6-1.3 1.3v40.6c0 .7.6 1.3 1.3 1.3h40.6c.7 0 1.3-.6 1.3-1.3v-40.6c.1-.7-.5-1.3-1.3-1.3z" class="st0"/>
  <path d="M403 118.2h34.9v70.5H403z" class="st1"/>
  <path d="M433.6 122.5v62h-26.5v-62h26.5m6.7-8.5h-39.7c-1 0-1.8.8-1.8 1.8v75.3c0 1 .8 1.8 1.8 1.8h39.7c1 0 1.8-.8 1.8-1.8v-75.3c0-1-.8-1.8-1.8-1.8z" class="st0"/>
  <g>
    <circle cx="598.1" cy="11.1" r="11.1" class="st0"/>
    <path d="M609.5 25.2h-22.8c-3.9 0-7.1 3.2-7.1 7.1V58c0 3.9 3.2 7.1 7.1 7.1h1.7v37.5c0 3 2.5 5.5 5.5 5.5h8.3c3 0 5.5-2.5 5.5-5.5V65.1h1.7c3.9 0 7.1-3.2 7.1-7.1V32.3c.1-3.9-3.1-7.1-7-7.1z" class="st0"/>
  </g>
  <g>
    <path d="M580.7 118.2h34.9v70.5h-34.9z" class="st1"/>
    <path d="M611.4 122.5v62h-26.5v-62h26.5m6.6-8.5h-39.7c-1 0-1.8.8-1.8 1.8v75.3c0 1 .8 1.8 1.8 1.8H618c1 0 1.8-.8 1.8-1.8v-75.3c0-1-.8-1.8-1.8-1.8z" class="st0"/>
  </g>
  <g>
    <circle cx="21.7" cy="11.1" r="11.1" class="st0"/>
    <path d="M33 25.2H10.3c-3.9 0-7.1 3.2-7.1 7.1V58c0 3.9 3.2 7.1 7.1 7.1H12v37.5c0 3 2.5 5.5 5.5 5.5h8.3c3 0 5.5-2.5 5.5-5.5V65.1H33c3.9 0 7.1-3.2 7.1-7.1V32.3c.1-3.9-3.1-7.1-7.1-7.1z" class="st0"/>
  </g>
  <g>
    <path d="M4.2 118.2h34.9v70.5H4.2z" class="st1"/>
    <path d="M34.9 122.5v62H8.4v-62h26.5m6.6-8.5H1.8c-1 0-1.8.8-1.8 1.8v75.3c0 1 .8 1.8 1.8 1.8h39.7c1 0 1.8-.8 1.8-1.8v-75.3c0-1-.8-1.8-1.8-1.8z" class="st0"/>
  </g>
</svg>
