<?xml version="1.0" encoding="utf-8"?>
<!-- Generator: Adobe Illustrator 23.0.0, SVG Export Plug-In . SVG Version: 6.00 Build 0)  -->
<svg version="1.1" id="Layer_1" xmlns="http://www.w3.org/2000/svg" xmlns:xlink="http://www.w3.org/1999/xlink" x="0px" y="0px"
	 viewBox="0 0 500 410" style="enable-background:new 0 0 500 410;" xml:space="preserve">
<style type="text/css">
	.st0{fill:#FFFFFF;}
</style>
<g>
	<path class="st0" d="M6,182.41c-1.11-1.11-1.66-2.34-1.66-3.71c0-1.02,0.09-1.79,0.26-2.3L64.23,12.35
		c1.7-4.94,5.12-7.42,10.24-7.42h39.93c5.12,0,8.53,2.48,10.23,7.42l59.63,164.05c0.17,0.51,0.26,1.28,0.26,2.3
		c0,1.37-0.55,2.6-1.66,3.71c-1.11,1.11-2.34,1.66-3.71,1.66h-33.27c-4.09,0-7-1.88-8.7-5.63l-9.21-24.83H60.9l-9.21,24.83
		c-1.71,3.76-4.61,5.63-8.7,5.63H9.72C8.35,184.08,7.11,183.53,6,182.41z M71.65,115.23h45.56L94.43,49.97L71.65,115.23z"/>
	<path class="st0" d="M200.79,182.62c-0.98-0.97-1.46-2.11-1.46-3.41V52.67c0-1.43,0.45-2.63,1.36-3.61
		c0.91-0.97,2.08-1.46,3.51-1.46h53.62c17.16,0,30.58,3.9,40.26,11.7c9.68,7.8,14.53,18.78,14.53,32.95c0,9.1-2.11,16.84-6.34,23.2
		c-4.23,6.37-10.04,11.31-17.45,14.82l26.32,47.57c0.39,0.78,0.59,1.5,0.59,2.15c0,1.04-0.39,1.98-1.17,2.83
		c-0.78,0.85-1.75,1.27-2.93,1.27h-27.49c-3.77,0-6.44-1.75-7.99-5.26L254.7,136.5h-18.72v42.7c0,1.43-0.49,2.6-1.46,3.51
		c-0.98,0.91-2.18,1.36-3.61,1.36H204.2C202.91,184.08,201.77,183.59,200.79,182.62z M257.63,107.84c5.59,0,9.85-1.39,12.77-4.19
		c2.92-2.79,4.39-6.66,4.39-11.6c0-4.94-1.46-8.9-4.39-11.89c-2.93-2.99-7.18-4.48-12.77-4.48h-21.64v32.17H257.63z"/>
	<path class="st0" d="M364.96,182.71c-0.98-0.91-1.46-2.08-1.46-3.51V79.38h-34.32c-1.43,0-2.63-0.46-3.61-1.37
		c-0.98-0.91-1.46-2.08-1.46-3.51V52.67c0-1.43,0.49-2.63,1.46-3.61c0.97-0.97,2.17-1.46,3.61-1.46h105.87
		c1.43,0,2.63,0.49,3.61,1.46c0.97,0.98,1.46,2.18,1.46,3.61V74.5c0,1.43-0.49,2.6-1.46,3.51c-0.98,0.91-2.18,1.37-3.61,1.37h-34.32
		v99.83c0,1.43-0.49,2.6-1.46,3.51c-0.98,0.91-2.18,1.36-3.61,1.36h-27.1C367.13,184.08,365.93,183.63,364.96,182.71z"/>
	<path class="st0" d="M458.74,182.62c-0.98-0.97-1.46-2.11-1.46-3.41V52.47c0-1.43,0.49-2.6,1.46-3.51
		c0.97-0.91,2.11-1.37,3.41-1.37h27.88c1.43,0,2.6,0.46,3.51,1.37c0.91,0.91,1.36,2.08,1.36,3.51v126.73c0,1.3-0.46,2.44-1.36,3.41
		c-0.91,0.98-2.08,1.46-3.51,1.46h-27.88C460.85,184.08,459.72,183.59,458.74,182.62z"/>
	<g>
		<path class="st0" d="M6.3,273.11c-1.09-1.1-2.36-3.45-2.36-5.05c0-1.77-0.17-1.26,6.23-2.69c1.18-7.33,2.36-18.36,3.03-22.41
			c0,0,1.26-0.34,2.61-0.34c1.85,0,4.21,0.59,4.21,3.54c0,4.13-1.77,11.96-3.12,18.19c5.73-1.01,10.95-1.77,13.31-1.77
			s3.96,3.03,3.96,4.88c0,0,0,1.1-1.6,1.26c-3.79,0.42-9.94,1.35-17.01,2.69l-0.08,0.42c5.56,6.23,7.83,10.95,7.83,21.9
			c0,17.52-9.94,27.8-14.07,27.8s-5.22-3.87-5.22-9.35c0-2.27,0.17-4.88,0.42-7.58c1.26-13.64,3.62-22.99,4.29-29.14L6.3,273.11z
			 M10.68,312.19c0,2.02,0.34,3.45,1.43,3.45c1.18,0,6.65-5.56,6.65-19.12c0-5.64-0.5-13.14-4.29-17.94
			c-0.51,4.97-2.11,15.92-3.2,26.7C11.01,307.48,10.68,310.09,10.68,312.19z"/>
		<path class="st0" d="M42.43,261.99c1.1,0.59,1.94,1.35,2.19,2.11c0,0,1.18-1.01,2.95-1.01c8.84,0,10.28,8.17,10.02,16.93
			c-0.34,9.27-3.54,29.31-14.4,29.31c-8.84,0-12.05-11.62-11.79-20.89C31.82,277.49,37.12,263.59,42.43,261.99z M41.67,303.43
			c7.83,0,10.45-22.49,10.61-27.46c0.08-2.44,0.59-8.42-2.78-8.42c-4.88,0-8.84,14.74-9.69,19.54c-0.08,0.34-1.94-0.34-2.44-0.76
			c0,0-0.51,2.36-0.59,5.47C36.53,298.21,38.22,303.43,41.67,303.43z"/>
		<path class="st0" d="M72.33,281.79c2.19-5.39,3.87-12.97,5.05-17.18c0.59-2.02,2.78-2.7,5.22-2.11c1.77,0.42,2.69,1.26,2.69,2.95
			c0,3.12-3.62,8.09-3.62,14.23c0,1.18,1.18,2.53,2.53,2.53c3.37,0,4.38-4.97,4.88-4.97c0.59,0,1.35,0.51,1.35,1.09
			c-0.17,2.95-2.78,7.75-7.16,7.75c-4.97,0-6.23-3.28-6.57-6.99c-1.52,4.55-5.56,14.24-5.73,28.05c-1.94,1.18-7.41-1.18-7.41-3.03
			c0-2.44,0.93-5.56,1.6-23.84c0.25-8.34,0.51-16.42,3.37-16.42c2.19,0,4.8,1.94,4.8,1.94c-0.25,4.55-1.35,10.78-1.6,15.75
			L72.33,281.79z"/>
	</g>
	<g>
		<path class="st0" d="M111.25,304.38c-4.32-3.64-6.62-8.99-6.88-16.05c-0.05-1.47-0.08-3.74-0.08-6.8c0-3.06,0.03-5.35,0.08-6.88
			c0.21-6.96,2.52-12.32,6.92-16.09c4.4-3.77,10.29-5.65,17.67-5.65c7.33,0,13.19,1.88,17.6,5.65c4.4,3.77,6.71,9.13,6.92,16.09
			c0.11,3.06,0.16,5.35,0.16,6.88c0,1.58-0.05,3.85-0.16,6.8c-0.26,7.07-2.54,12.42-6.84,16.05s-10.19,5.46-17.67,5.46
			C121.47,309.83,115.57,308.02,111.25,304.38z M135.53,295.48c1.63-1.66,2.5-4.2,2.61-7.63c0.11-3.06,0.16-5.25,0.16-6.56
			c0-1.32-0.05-3.45-0.16-6.41c-0.11-3.43-0.98-5.97-2.61-7.63c-1.64-1.66-3.82-2.49-6.56-2.49c-2.79,0-5.01,0.83-6.64,2.49
			c-1.63,1.66-2.51,4.21-2.61,7.63c-0.05,1.48-0.08,3.61-0.08,6.41c0,2.85,0.03,5.04,0.08,6.56c0.1,3.43,0.97,5.97,2.61,7.63
			c1.63,1.66,3.85,2.49,6.64,2.49C131.7,297.97,133.89,297.14,135.53,295.48z"/>
		<path class="st0" d="M157.15,308.53c-0.34-0.34-0.51-0.72-0.51-1.15c0-0.32,0.03-0.55,0.08-0.71l18.43-50.69
			c0.53-1.53,1.58-2.29,3.16-2.29h12.34c1.58,0,2.64,0.76,3.16,2.29l18.43,50.69c0.05,0.16,0.08,0.39,0.08,0.71
			c0,0.42-0.17,0.8-0.52,1.15c-0.34,0.34-0.72,0.51-1.15,0.51h-10.28c-1.27,0-2.16-0.58-2.69-1.74l-2.85-7.67h-20.72l-2.85,7.67
			c-0.53,1.16-1.42,1.74-2.69,1.74H158.3C157.88,309.04,157.5,308.87,157.15,308.53z M177.44,287.77h14.08l-7.04-20.17
			L177.44,287.77z"/>
		<path class="st0" d="M218.92,308.45c-0.4-0.4-0.59-0.86-0.59-1.38v-51.33c0-0.58,0.18-1.07,0.55-1.46
			c0.37-0.4,0.84-0.59,1.42-0.59h10.6c0.58,0,1.05,0.2,1.42,0.59c0.37,0.4,0.55,0.88,0.55,1.46v17.24l14-17.72
			c0.58-1.05,1.61-1.58,3.08-1.58h12.1c0.42,0,0.8,0.17,1.15,0.51c0.34,0.34,0.51,0.73,0.51,1.15c0,0.42-0.11,0.74-0.32,0.95
			l-18.43,23.88l19.93,26.26c0.21,0.21,0.32,0.53,0.32,0.95s-0.17,0.8-0.51,1.15c-0.34,0.34-0.75,0.51-1.23,0.51h-12.42
			c-0.84,0-1.53-0.17-2.06-0.51c-0.53-0.34-0.9-0.7-1.11-1.07l-15.03-19.3v18.9c0,0.53-0.19,0.99-0.55,1.38
			c-0.37,0.39-0.84,0.59-1.42,0.59h-10.6C219.77,309.04,219.31,308.84,218.92,308.45z"/>
		<path class="st0" d="M288.04,308.45c-0.4-0.4-0.59-0.86-0.59-1.38v-51.33c0-0.58,0.18-1.07,0.55-1.46
			c0.37-0.4,0.84-0.59,1.42-0.59h22.38c6.85,0,12.23,1.56,16.13,4.67c3.9,3.11,5.85,7.67,5.85,13.68s-1.95,10.51-5.85,13.48
			c-3.9,2.98-9.28,4.47-16.13,4.47h-9.02v17.08c0,0.53-0.19,0.99-0.55,1.38c-0.37,0.39-0.84,0.59-1.42,0.59h-11.39
			C288.89,309.04,288.43,308.84,288.04,308.45z M311.4,278.67c2.16,0,3.86-0.56,5.1-1.7c1.24-1.13,1.86-2.81,1.86-5.02
			c0-2.06-0.57-3.72-1.7-4.98c-1.13-1.27-2.89-1.9-5.26-1.9h-8.86v13.6H311.4z"/>
		<path class="st0" d="M333.03,308.53c-0.34-0.34-0.51-0.72-0.51-1.15c0-0.32,0.03-0.55,0.08-0.71l18.43-50.69
			c0.53-1.53,1.58-2.29,3.16-2.29h12.34c1.58,0,2.64,0.76,3.16,2.29l18.43,50.69c0.05,0.16,0.08,0.39,0.08,0.71
			c0,0.42-0.17,0.8-0.52,1.15c-0.34,0.34-0.72,0.51-1.15,0.51h-10.28c-1.27,0-2.16-0.58-2.69-1.74l-2.85-7.67H350l-2.85,7.67
			c-0.53,1.16-1.42,1.74-2.69,1.74h-10.28C333.76,309.04,333.38,308.87,333.03,308.53z M353.32,287.77h14.08l-7.04-20.17
			L353.32,287.77z"/>
		<path class="st0" d="M394.8,308.45c-0.4-0.4-0.59-0.86-0.59-1.38v-51.33c0-0.58,0.18-1.07,0.55-1.46c0.37-0.4,0.84-0.59,1.42-0.59
			h21.75c6.96,0,12.4,1.58,16.33,4.74s5.89,7.62,5.89,13.37c0,3.69-0.86,6.83-2.57,9.41c-1.71,2.58-4.07,4.59-7.08,6.01l10.68,19.3
			c0.16,0.32,0.24,0.61,0.24,0.87c0,0.42-0.16,0.8-0.48,1.15c-0.32,0.34-0.71,0.51-1.19,0.51H428.6c-1.53,0-2.61-0.71-3.24-2.14
			l-8.7-17.16h-7.59v17.32c0,0.58-0.2,1.06-0.59,1.42c-0.4,0.37-0.88,0.55-1.46,0.55h-10.83
			C395.65,309.04,395.19,308.84,394.8,308.45z M417.85,278.12c2.27,0,3.99-0.57,5.18-1.7c1.19-1.13,1.78-2.7,1.78-4.71
			s-0.59-3.61-1.78-4.82c-1.19-1.21-2.91-1.82-5.18-1.82h-8.78v13.05H417.85z"/>
		<path class="st0" d="M449.76,308.45c-0.4-0.4-0.59-0.86-0.59-1.38v-51.33c0-0.58,0.18-1.07,0.55-1.46
			c0.37-0.4,0.84-0.59,1.42-0.59h10.6c0.58,0,1.05,0.2,1.42,0.59c0.37,0.4,0.55,0.88,0.55,1.46v17.24l14-17.72
			c0.58-1.05,1.61-1.58,3.08-1.58h12.1c0.42,0,0.8,0.17,1.15,0.51c0.34,0.34,0.51,0.73,0.51,1.15c0,0.42-0.11,0.74-0.32,0.95
			l-18.43,23.88l19.93,26.26c0.21,0.21,0.32,0.53,0.32,0.95s-0.17,0.8-0.51,1.15c-0.34,0.34-0.75,0.51-1.23,0.51h-12.42
			c-0.84,0-1.53-0.17-2.06-0.51c-0.53-0.34-0.9-0.7-1.11-1.07l-15.03-19.3v18.9c0,0.53-0.19,0.99-0.55,1.38
			c-0.37,0.39-0.84,0.59-1.42,0.59h-10.6C450.62,309.04,450.16,308.84,449.76,308.45z"/>
	</g>
	<g>
		<path class="st0" d="M24.48,403.41c-0.49-0.46-0.73-1.04-0.73-1.76v-50.09H6.53c-0.72,0-1.32-0.23-1.81-0.68
			c-0.49-0.46-0.73-1.04-0.73-1.76v-10.96c0-0.72,0.24-1.32,0.73-1.81c0.49-0.49,1.09-0.73,1.81-0.73h53.12
			c0.72,0,1.32,0.24,1.81,0.73c0.49,0.49,0.73,1.09,0.73,1.81v10.96c0,0.72-0.24,1.31-0.73,1.76c-0.49,0.46-1.09,0.68-1.81,0.68
			H42.43v50.09c0,0.72-0.24,1.31-0.73,1.76c-0.49,0.46-1.09,0.68-1.81,0.68h-13.6C25.57,404.1,24.97,403.87,24.48,403.41z"/>
		<path class="st0" d="M78.88,403.36c-0.49-0.49-0.73-1.06-0.73-1.71v-63.5c0-0.72,0.23-1.32,0.68-1.81
			c0.46-0.49,1.04-0.73,1.76-0.73h26.9c8.61,0,15.34,1.96,20.2,5.87c4.86,3.91,7.29,9.43,7.29,16.53c0,4.57-1.06,8.45-3.18,11.64
			c-2.12,3.2-5.04,5.67-8.76,7.44l13.21,23.87c0.2,0.39,0.29,0.75,0.29,1.08c0,0.52-0.2,1-0.59,1.42c-0.39,0.42-0.88,0.64-1.47,0.64
			H120.7c-1.89,0-3.23-0.88-4.01-2.64l-10.76-21.23h-9.39v21.43c0,0.72-0.24,1.31-0.73,1.76c-0.49,0.46-1.09,0.68-1.81,0.68h-13.4
			C79.94,404.1,79.37,403.85,78.88,403.36z M107.4,365.84c2.8,0,4.94-0.7,6.41-2.1c1.47-1.4,2.2-3.34,2.2-5.82
			c0-2.48-0.73-4.47-2.2-5.97c-1.47-1.5-3.6-2.25-6.41-2.25H96.54v16.14H107.4z"/>
		<path class="st0" d="M160.76,398.32c-5.25-4.5-7.88-11.25-7.88-20.25v-39.92c0-0.72,0.23-1.32,0.68-1.81
			c0.46-0.49,1.04-0.73,1.76-0.73h13.4c0.72,0,1.32,0.24,1.81,0.73c0.49,0.49,0.73,1.09,0.73,1.81v39.72c0,4.04,0.96,7.08,2.89,9.1
			c1.92,2.02,4.68,3.03,8.27,3.03c3.59,0,6.34-1.03,8.27-3.08c1.92-2.05,2.89-5.07,2.89-9.05v-39.72c0-0.72,0.24-1.32,0.73-1.81
			c0.49-0.49,1.09-0.73,1.81-0.73h13.31c0.72,0,1.32,0.24,1.81,0.73c0.49,0.49,0.73,1.09,0.73,1.81v39.92c0,9-2.61,15.75-7.83,20.25
			c-5.22,4.5-12.43,6.75-21.62,6.75C173.27,405.08,166.01,402.82,160.76,398.32z"/>
		<path class="st0" d="M241.82,402.34c-4.44-1.83-7.79-4.24-10.08-7.24c-2.28-3-3.49-6.26-3.62-9.78c0-0.59,0.21-1.08,0.64-1.47
			c0.42-0.39,0.93-0.59,1.52-0.59h13.01c0.78,0,1.42,0.13,1.91,0.39c0.49,0.26,1.03,0.72,1.61,1.37c0.85,1.57,2.17,2.85,3.96,3.86
			c1.79,1.01,4.19,1.52,7.19,1.52c3.52,0,6.23-0.54,8.12-1.61c1.89-1.08,2.84-2.56,2.84-4.45c0-1.37-0.49-2.49-1.47-3.38
			c-0.98-0.88-2.54-1.66-4.7-2.35c-2.15-0.68-5.25-1.45-9.29-2.3c-7.89-1.57-13.79-3.95-17.71-7.14c-3.91-3.19-5.87-7.76-5.87-13.7
			c0-4.04,1.13-7.65,3.38-10.81c2.25-3.16,5.45-5.63,9.59-7.39c4.14-1.76,8.95-2.64,14.43-2.64c5.74,0,10.71,1,14.92,2.98
			c4.21,1.99,7.44,4.47,9.69,7.44c2.25,2.97,3.44,5.89,3.57,8.76c0,0.59-0.2,1.09-0.59,1.52c-0.39,0.42-0.88,0.64-1.47,0.64h-13.7
			c-1.44,0-2.54-0.59-3.33-1.76c-0.39-1.37-1.4-2.53-3.03-3.47c-1.63-0.94-3.65-1.42-6.07-1.42c-2.74,0-4.86,0.49-6.36,1.47
			c-1.5,0.98-2.25,2.41-2.25,4.3c0,1.89,0.98,3.38,2.94,4.45c1.96,1.08,5.61,2.17,10.96,3.28c6.13,1.11,11.01,2.49,14.63,4.16
			c3.62,1.66,6.29,3.82,8.02,6.46c1.73,2.64,2.59,5.98,2.59,10.03c0,4.44-1.27,8.28-3.82,11.54c-2.54,3.26-6.07,5.76-10.57,7.48
			c-4.5,1.73-9.65,2.59-15.46,2.59C251.64,405.08,246.26,404.16,241.82,402.34z"/>
		<path class="st0" d="M319.65,403.41c-0.49-0.46-0.73-1.04-0.73-1.76v-50.09H301.7c-0.72,0-1.32-0.23-1.81-0.68
			c-0.49-0.46-0.73-1.04-0.73-1.76v-10.96c0-0.72,0.24-1.32,0.73-1.81c0.49-0.49,1.09-0.73,1.81-0.73h53.12
			c0.72,0,1.32,0.24,1.81,0.73c0.49,0.49,0.73,1.09,0.73,1.81v10.96c0,0.72-0.24,1.31-0.73,1.76c-0.49,0.46-1.09,0.68-1.81,0.68
			H337.6v50.09c0,0.72-0.24,1.31-0.73,1.76c-0.49,0.46-1.09,0.68-1.81,0.68h-13.6C320.74,404.1,320.14,403.87,319.65,403.41z"/>
		<path class="st0" d="M374.04,403.36c-0.49-0.49-0.73-1.06-0.73-1.71v-63.5c0-0.72,0.23-1.32,0.68-1.81
			c0.46-0.49,1.04-0.73,1.76-0.73h46.18c0.72,0,1.32,0.24,1.81,0.73c0.49,0.49,0.73,1.09,0.73,1.81v9.69c0,0.72-0.24,1.31-0.73,1.76
			c-0.49,0.46-1.09,0.68-1.81,0.68h-30.92v12.43h28.76c0.72,0,1.32,0.24,1.81,0.73s0.73,1.09,0.73,1.81v8.9
			c0,0.72-0.24,1.32-0.73,1.81c-0.49,0.49-1.09,0.73-1.81,0.73h-28.76v12.72h31.7c0.72,0,1.32,0.24,1.81,0.73
			c0.49,0.49,0.73,1.09,0.73,1.81v9.69c0,0.72-0.24,1.31-0.73,1.76c-0.49,0.46-1.09,0.68-1.81,0.68h-46.96
			C375.1,404.1,374.53,403.85,374.04,403.36z"/>
		<path class="st0" d="M444.19,403.36c-0.49-0.49-0.73-1.06-0.73-1.71v-63.5c0-0.72,0.23-1.32,0.68-1.81
			c0.46-0.49,1.04-0.73,1.76-0.73h46.18c0.72,0,1.32,0.24,1.81,0.73c0.49,0.49,0.73,1.09,0.73,1.81v9.69c0,0.72-0.24,1.31-0.73,1.76
			c-0.49,0.46-1.09,0.68-1.81,0.68h-30.92v12.43h28.76c0.72,0,1.32,0.24,1.81,0.73s0.73,1.09,0.73,1.81v8.9
			c0,0.72-0.24,1.32-0.73,1.81c-0.49,0.49-1.09,0.73-1.81,0.73h-28.76v12.72h31.7c0.72,0,1.32,0.24,1.81,0.73
			c0.49,0.49,0.73,1.09,0.73,1.81v9.69c0,0.72-0.24,1.31-0.73,1.76c-0.49,0.46-1.09,0.68-1.81,0.68H445.9
			C445.25,404.1,444.68,403.85,444.19,403.36z"/>
	</g>
	<path class="st0" d="M492.01,226.19H6.97c-1.6,0-2.9-1.3-2.9-2.9v-8.7c0-1.6,1.3-2.9,2.9-2.9h485.04c1.6,0,2.9,1.3,2.9,2.9v8.7
		C494.91,224.89,493.61,226.19,492.01,226.19z"/>
	<path class="st0" d="M491.99,19.57H165.8c-1.6,0-2.9-1.3-2.9-2.9v-8.7c0-1.6,1.3-2.9,2.9-2.9h326.2c1.6,0,2.9,1.3,2.9,2.9v8.7
		C494.89,18.27,493.59,19.57,491.99,19.57z"/>
</g>
</svg>
